solid cylinder
   facet normal -1.000000e+00 -0.000000e+00 -0.000000e+00
      outer loop
         vertex 0.000000e+00 4.000000e-01 2.000000e-01
         vertex 0.000000e+00 4.000000e-01 0.000000e+00
         vertex 0.000000e+00 1.500000e-01 2.000000e-01
      endloop
   endfacet
   facet normal -1.000000e+00 0.000000e+00 -0.000000e+00
      outer loop
         vertex 0.000000e+00 1.500000e-01 2.000000e-01
         vertex 0.000000e+00 4.000000e-01 0.000000e+00
         vertex 0.000000e+00 0.000000e+00 0.000000e+00
      endloop
   endfacet
   facet normal -1.000000e+00 -0.000000e+00 0.000000e+00
      outer loop
         vertex 0.000000e+00 1.500000e-01 2.000000e-01
         vertex 0.000000e+00 0.000000e+00 0.000000e+00
         vertex 0.000000e+00 1.500000e-01 4.000000e-01
      endloop
   endfacet
   facet normal -1.000000e+00 -0.000000e+00 0.000000e+00
      outer loop
         vertex 0.000000e+00 1.500000e-01 4.000000e-01
         vertex 0.000000e+00 0.000000e+00 0.000000e+00
         vertex 0.000000e+00 0.000000e+00 6.000000e-01
      endloop
   endfacet
   facet normal -1.000000e+00 0.000000e+00 0.000000e+00
      outer loop
         vertex 0.000000e+00 1.500000e-01 4.000000e-01
         vertex 0.000000e+00 0.000000e+00 6.000000e-01
         vertex 0.000000e+00 4.000000e-01 4.000000e-01
      endloop
   endfacet
   facet normal -1.000000e+00 0.000000e+00 0.000000e+00
      outer loop
         vertex 0.000000e+00 4.000000e-01 4.000000e-01
         vertex 0.000000e+00 0.000000e+00 6.000000e-01
         vertex 0.000000e+00 4.000000e-01 6.000000e-01
      endloop
   endfacet
   facet normal 7.071068e-01 7.071068e-01 -0.000000e+00
      outer loop
         vertex 2.000000e-01 4.000000e-01 4.000000e-01
         vertex 2.000000e-01 4.000000e-01 6.000000e-01
         vertex 4.500000e-01 1.500000e-01 4.000000e-01
      endloop
   endfacet
   facet normal 7.071068e-01 7.071068e-01 9.878167e-09
      outer loop
         vertex 4.500000e-01 1.500000e-01 4.000000e-01
         vertex 2.000000e-01 4.000000e-01 6.000000e-01
         vertex 6.000000e-01 0.000000e+00 6.000000e-01
      endloop
   endfacet
   facet normal 7.071068e-01 7.071068e-01 0.000000e+00
      outer loop
         vertex 4.500000e-01 1.500000e-01 4.000000e-01
         vertex 6.000000e-01 0.000000e+00 6.000000e-01
         vertex 4.500000e-01 1.500000e-01 2.000000e-01
      endloop
   endfacet
   facet normal 7.071068e-01 7.071068e-01 0.000000e+00
      outer loop
         vertex 4.500000e-01 1.500000e-01 2.000000e-01
         vertex 6.000000e-01 0.000000e+00 6.000000e-01
         vertex 6.000000e-01 0.000000e+00 0.000000e+00
      endloop
   endfacet
   facet normal 7.071068e-01 7.071068e-01 -1.580507e-08
      outer loop
         vertex 4.500000e-01 1.500000e-01 2.000000e-01
         vertex 6.000000e-01 0.000000e+00 0.000000e+00
         vertex 2.000000e-01 4.000000e-01 2.000000e-01
      endloop
   endfacet
   facet normal 7.071068e-01 7.071068e-01 0.000000e+00
      outer loop
         vertex 2.000000e-01 4.000000e-01 2.000000e-01
         vertex 6.000000e-01 0.000000e+00 0.000000e+00
         vertex 2.000000e-01 4.000000e-01 0.000000e+00
      endloop
   endfacet
   facet normal 0.000000e+00 1.000000e+00 0.000000e+00
      outer loop
         vertex 2.000000e-01 4.000000e-01 2.000000e-01
         vertex 2.000000e-01 4.000000e-01 0.000000e+00
         vertex 0.000000e+00 4.000000e-01 2.000000e-01
      endloop
   endfacet
   facet normal 0.000000e+00 1.000000e+00 0.000000e+00
      outer loop
         vertex 0.000000e+00 4.000000e-01 2.000000e-01
         vertex 2.000000e-01 4.000000e-01 0.000000e+00
         vertex 0.000000e+00 4.000000e-01 0.000000e+00
      endloop
   endfacet
   facet normal 0.000000e+00 1.000000e+00 0.000000e+00
      outer loop
         vertex 0.000000e+00 4.000000e-01 4.000000e-01
         vertex 0.000000e+00 4.000000e-01 6.000000e-01
         vertex 2.000000e-01 4.000000e-01 4.000000e-01
      endloop
   endfacet
   facet normal 0.000000e+00 1.000000e+00 -0.000000e+00
      outer loop
         vertex 2.000000e-01 4.000000e-01 4.000000e-01
         vertex 0.000000e+00 4.000000e-01 6.000000e-01
         vertex 2.000000e-01 4.000000e-01 6.000000e-01
      endloop
   endfacet
   facet normal 0.000000e+00 -1.000000e+00 0.000000e+00
      outer loop
         vertex 6.000000e-01 0.000000e+00 0.000000e+00
         vertex 6.000000e-01 0.000000e+00 6.000000e-01
         vertex 0.000000e+00 0.000000e+00 0.000000e+00
      endloop
   endfacet
   facet normal 0.000000e+00 -1.000000e+00 0.000000e+00
      outer loop
         vertex 0.000000e+00 0.000000e+00 0.000000e+00
         vertex 6.000000e-01 0.000000e+00 6.000000e-01
         vertex 0.000000e+00 0.000000e+00 6.000000e-01
      endloop
   endfacet
   facet normal 0.000000e+00 0.000000e+00 1.000000e+00
      outer loop
         vertex 0.000000e+00 0.000000e+00 6.000000e-01
         vertex 6.000000e-01 0.000000e+00 6.000000e-01
         vertex 0.000000e+00 4.000000e-01 6.000000e-01
      endloop
   endfacet
   facet normal -0.000000e+00 0.000000e+00 1.000000e+00
      outer loop
         vertex 0.000000e+00 4.000000e-01 6.000000e-01
         vertex 6.000000e-01 0.000000e+00 6.000000e-01
         vertex 2.000000e-01 4.000000e-01 6.000000e-01
      endloop
   endfacet
   facet normal 0.000000e+00 0.000000e+00 -1.000000e+00
      outer loop
         vertex 0.000000e+00 4.000000e-01 4.000000e-01
         vertex 2.000000e-01 4.000000e-01 4.000000e-01
         vertex 0.000000e+00 1.500000e-01 4.000000e-01
      endloop
   endfacet
   facet normal 0.000000e+00 0.000000e+00 -1.000000e+00
      outer loop
         vertex 0.000000e+00 1.500000e-01 4.000000e-01
         vertex 2.000000e-01 4.000000e-01 4.000000e-01
         vertex 4.500000e-01 1.500000e-01 4.000000e-01
      endloop
   endfacet
   facet normal 0.000000e+00 1.000000e+00 0.000000e+00
      outer loop
         vertex 0.000000e+00 1.500000e-01 2.000000e-01
         vertex 0.000000e+00 1.500000e-01 4.000000e-01
         vertex 4.500000e-01 1.500000e-01 2.000000e-01
      endloop
   endfacet
   facet normal 0.000000e+00 1.000000e+00 -0.000000e+00
      outer loop
         vertex 4.500000e-01 1.500000e-01 2.000000e-01
         vertex 0.000000e+00 1.500000e-01 4.000000e-01
         vertex 4.500000e-01 1.500000e-01 4.000000e-01
      endloop
   endfacet
   facet normal 0.000000e+00 0.000000e+00 -1.000000e+00
      outer loop
         vertex 6.000000e-01 0.000000e+00 0.000000e+00
         vertex 0.000000e+00 0.000000e+00 0.000000e+00
         vertex 2.000000e-01 4.000000e-01 0.000000e+00
      endloop
   endfacet
   facet normal -0.000000e+00 0.000000e+00 -1.000000e+00
      outer loop
         vertex 2.000000e-01 4.000000e-01 0.000000e+00
         vertex 0.000000e+00 0.000000e+00 0.000000e+00
         vertex 0.000000e+00 4.000000e-01 0.000000e+00
      endloop
   endfacet
   facet normal -0.000000e+00 0.000000e+00 1.000000e+00
      outer loop
         vertex 0.000000e+00 4.000000e-01 2.000000e-01
         vertex 0.000000e+00 1.500000e-01 2.000000e-01
         vertex 2.000000e-01 4.000000e-01 2.000000e-01
      endloop
   endfacet
   facet normal 0.000000e+00 0.000000e+00 1.000000e+00
      outer loop
         vertex 2.000000e-01 4.000000e-01 2.000000e-01
         vertex 0.000000e+00 1.500000e-01 2.000000e-01
         vertex 4.500000e-01 1.500000e-01 2.000000e-01
      endloop
   endfacet
endsolid